PathFileType	3	(X/Y/Z)	C:\Users\koon_\Desktop\
DataRate	CameraRate	NumFrames	NumMarkers	Units	OrigDataRate	OrigDataStartFrame	OrigNumFrames
100.0	100.0	7	27	mm	100.0	616	2463	
Frame#	Time	get:LFHD			get:RFHD			get:LBHD			get:RBHD			get:C7			get:T10			get:CLAV			get:STRN			get:RBAK			get:LSHO			get:LUPA			get:LELB			get:LFRA			get:LWRA			get:LWRB			get:LFIN			get:RSHO			get:RUPA			get:RELB			get:RFRA			get:RWRA			get:RWRB			get:RFIN			get:LASI			get:RASI			get:LPSI			get:RPSI			
		X1	Y1	Z1	X2	Y2	Z2	X3	Y3	Z3	X4	Y4	Z4	X5	Y5	Z5	X6	Y6	Z6	X7	Y7	Z7	X8	Y8	Z8	X9	Y9	Z9	X10	Y10	Z10	X11	Y11	Z11	X12	Y12	Z12	X13	Y13	Z13	X14	Y14	Z14	X15	Y15	Z15	X16	Y16	Z16	X17	Y17	Z17	X18	Y18	Z18	X19	Y19	Z19	X20	Y20	Z20	X21	Y21	Z21	X22	Y22	Z22	X23	Y23	Z23	X24	Y24	Z24	X25	Y25	Z25	X26	Y26	Z26	X27	Y27	Z27	
616	6.15	85.693092	1556.1201	-52.246212	-55.322411	1551.8536	-56.257549	66.810448	1552.6418	-213.64703	-62.490154	1524.0385	-220.88766	31.595367	1336.5098	-240.26456	27.323624	1122.9686	-281.12143	15.496992	1268.0863	-51.936779	16.2742	1069.5338	-9.2945948	-44.786095	1258.0269	-275.65103	165.62634	1338.8168	-153.68265	251.21411	1195.4618	-131.21507	282.66644	996.77338	-136.44586	273.93024	878.07562	-50.527935	244.68781	805.11652	-22.65695	295.19592	794.4071	-93.869873	310.54767	739.76453	-13.405287	-116.61425	1326.877	-169.948	-211.66071	1105.0823	-150.13451	-226.27338	992.19965	-216.71452	-242.25728	943.9267	-131.28586	-242.71362	800.80951	-94.361168	-268.32568	792.98328	-171.72215	-304.03568	736.85107	-93.222305	142.30634	887.27856	-37.019741	-125.58357	874.45636	-59.903511	64.702988	942.01477	-262.03726	-25.22049	940.29492	-271.4176
617	6.16	85.709976	1556.2075	-51.879814	-55.304028	1552.0249	-56.005741	66.919273	1552.5732	-213.26524	-62.428238	1524.0397	-220.60439	31.637262	1336.7181	-239.82027	27.275326	1123.1816	-280.85596	15.466425	1268.0502	-51.537628	16.301735	1069.413	-9.0228004	-44.730122	1258.3169	-275.33929	165.62039	1338.8551	-153.18472	251.16354	1195.4275	-130.81819	282.49777	996.73688	-136.55148	273.76849	877.53674	-51.356861	244.42203	804.4259	-23.986103	295.0947	794.13641	-95.20327	310.1442	738.84674	-14.95227	-116.6073	1326.9266	-169.41385	-211.34944	1104.9241	-150.28331	-225.31668	992.13367	-217.21144	-241.5896	943.60052	-131.88873	-241.9827	800.44293	-95.264969	-267.26974	792.37128	-172.76036	-303.21353	736.3446	-94.85788	142.47087	887.26282	-37.350609	-125.44524	874.36267	-59.943485	64.51857	942.24072	-262.17206	-25.376255	940.52631	-271.41672
618	6.17	85.753555	1556.2922	-51.484009	-55.245361	1552.1942	-55.6912	66.996765	1552.4761	-212.89105	-62.326923	1524.0376	-220.19031	31.654182	1336.8572	-239.32582	27.239305	1123.4087	-280.6185	15.470409	1268.0546	-51.140896	16.392086	1069.2966	-8.7156868	-44.734238	1258.5746	-274.97467	165.62744	1338.9087	-152.62433	251.1301	1195.4357	-130.44534	282.37915	996.71429	-136.66913	273.6553	877.06024	-52.193054	244.24098	803.79114	-25.26996	294.87799	793.90668	-96.66095	309.76819	737.91321	-16.690311	-116.62943	1326.9408	-168.90332	-211.10234	1104.7212	-150.32175	-224.38312	992.05078	-217.5764	-241.00378	943.25275	-132.49939	-241.28789	799.99579	-96.451202	-266.06332	791.96381	-173.96378	-302.37454	735.73145	-96.584084	142.69818	887.24548	-37.679287	-125.30447	874.29871	-59.889591	64.36692	942.40942	-262.29272	-25.541603	940.72028	-271.41626
619	6.18	85.831604	1556.329	-51.061043	-55.185753	1552.3135	-55.305119	67.059174	1552.4403	-212.52417	-62.270412	1524.1309	-219.91667	31.626389	1336.9567	-238.71225	27.214827	1123.6167	-280.46921	15.478513	1268.0098	-50.515194	16.496141	1069.2008	-8.4576397	-44.702293	1258.8136	-274.52887	165.61353	1338.9644	-152.12257	251.08418	1195.4098	-130.09171	282.21869	996.68976	-136.73291	273.56937	876.5368	-53.091686	244.11189	803.12683	-26.635355	294.71149	793.68018	-98.155357	309.47318	737.01025	-18.600548	-116.64111	1326.9543	-168.37524	-210.89917	1104.5343	-150.23489	-223.61311	992.01575	-217.91801	-240.46327	942.86273	-133.03799	-240.58653	799.43713	-97.473877	-264.91013	791.64343	-175.14032	-301.46252	734.9917	-98.210159	142.83469	887.22351	-37.961243	-125.13156	874.216	-59.708508	64.241356	942.54816	-262.41623	-25.672493	940.9375	-271.42456
620	6.19	85.916359	1556.3527	-50.710232	-55.10511	1552.4313	-54.846924	67.128433	1552.4067	-212.12773	-62.235985	1524.1591	-219.40544	31.615625	1337.1045	-238.13326	27.182278	1123.8821	-280.31781	15.523111	1267.9885	-50.018475	16.678263	1069.1119	-8.1051903	-44.697975	1258.9976	-274.0665	165.61981	1339.0409	-151.62691	250.9881	1195.3854	-129.74992	281.94992	996.70251	-136.91542	273.45538	876.01135	-54.026787	244.03377	802.49841	-27.986948	294.49091	793.45319	-99.612411	309.32834	736.19946	-20.501358	-116.67987	1326.946	-167.85446	-210.71187	1104.326	-150.09067	-222.92778	992.00214	-218.01649	-240.02365	942.38403	-133.52374	-239.91446	798.7655	-98.417152	-263.93494	791.2984	-176.37895	-300.55725	734.1405	-99.773575	142.99457	887.16351	-38.238419	-125.0014	874.14642	-59.64827	64.160645	942.64862	-262.51877	-25.804234	941.08881	-271.43118
621	6.2	85.993813	1556.3824	-50.261078	-55.017338	1552.5745	-54.354282	67.12455	1552.3875	-211.67976	-62.259842	1524.1683	-218.83609	31.568996	1337.3127	-237.73087	27.125084	1124.094	-280.0441	15.5665	1267.959	-49.310375	16.875492	1069.0289	-7.7853961	-44.735149	1259.1879	-273.58939	165.60483	1339.13	-151.0555	250.90825	1195.4319	-129.4176	281.64392	996.72687	-137.0441	273.44199	875.59564	-54.921379	244.04102	801.89362	-29.33021	294.21811	793.50867	-101.40084	309.16418	735.42444	-22.531889	-116.69571	1326.9402	-167.30855	-210.53702	1104.1339	-149.77327	-222.39224	991.96234	-217.94666	-239.64258	941.9433	-133.84473	-239.14597	798.02899	-99.530701	-263.13312	790.97565	-177.42709	-299.61319	733.23273	-101.0539	143.13373	887.12299	-38.566769	-124.82837	874.10889	-59.542633	64.081177	942.72101	-262.67996	-25.887978	941.20294	-271.47092
622	6.21	86.085342	1556.4158	-49.821445	-54.927837	1552.6841	-53.783829	67.122475	1552.3564	-211.23296	-62.26186	1524.2026	-218.22495	31.437836	1337.4781	-237.18358	27.07287	1124.3796	-279.92331	15.664536	1267.9452	-48.81039	17.068764	1068.9172	-7.5450506	-44.768726	1259.3832	-273.06241	165.62151	1339.2429	-150.54106	250.77664	1195.4697	-129.08606	281.35394	996.78424	-137.14694	273.40302	875.24408	-55.845127	244.08536	801.35974	-30.672419	293.97882	793.34772	-102.84312	309.15155	734.70074	-24.557981	-116.76361	1326.917	-166.58385	-210.3824	1104.0095	-149.31828	-222.04958	992.01404	-217.7365	-239.20909	941.52185	-133.94579	-238.45152	797.30469	-100.54829	-262.40964	790.79846	-178.60797	-298.72806	732.24719	-102.47836	143.30101	887.06421	-38.868618	-124.69224	874.08002	-59.562996	64.003502	942.75079	-262.86911	-25.966171	941.26404	-271.49945
